<svg xmlns="http://www.w3.org/2000/svg" width="49" height="70" viewBox="0 0 49 70">
  <defs>
    <style>
      .cls-1 {
        fill: #fff;
      }

      .cls-1, .cls-2 {
        fill-rule: evenodd;
      }

      .cls-2 {
        fill: none;
        stroke: #fff;
        stroke-width: 3px;
      }
    </style>
  </defs>
  <path class="cls-1" d="M19.914,33.325H21.98V70H19.914V33.325Z"/>
  <path class="cls-2" d="M8.047,21.636a5.978,5.978,0,0,1,8.369,0,5.776,5.776,0,0,1,0,8.251,5.978,5.978,0,0,1-8.369,0A5.776,5.776,0,0,1,8.047,21.636Zm16.739-16.5a5.978,5.978,0,0,1,8.369,0,5.776,5.776,0,0,1,0,8.251,5.978,5.978,0,0,1-8.369,0A5.776,5.776,0,0,1,24.786,5.135ZM14.687,29.17A5.919,5.919,0,1,1,20.6,35,5.876,5.876,0,0,1,14.687,29.17Zm0-23.336a5.919,5.919,0,0,1,11.836,0A5.919,5.919,0,0,1,14.687,5.834Zm10.1,24.035a5.776,5.776,0,0,1,0-8.251,5.978,5.978,0,0,1,8.369,0,5.776,5.776,0,0,1,0,8.251A5.978,5.978,0,0,1,24.786,29.869ZM8.047,13.368a5.776,5.776,0,0,1,0-8.251,5.978,5.978,0,0,1,8.369,0,5.776,5.776,0,0,1,0,8.251A5.978,5.978,0,0,1,8.047,13.368Zm24.381,9.956a5.835,5.835,0,1,1,5.918-5.834A5.877,5.877,0,0,1,32.428,23.324Zm-23.672,0a5.835,5.835,0,1,1,5.918-5.834A5.876,5.876,0,0,1,8.756,23.324Z"/>
  <path class="cls-2" d="M20.592,7A10.5,10.5,0,1,1,9.946,17.5,10.575,10.575,0,0,1,20.592,7Z"/>
  <path class="cls-2" d="M21.47,56.7l-1.045-1.044L34.371,41.824l1.045,1.044Z"/>
  <path class="cls-2" d="M21.631,55.115l-1.045,1.744L3.153,39.576,4.2,37.832Z"/>
  <path class="cls-2" d="M49,29.947s-0.984,14.419-5.239,18.637-10.74,4.629-14.484.916-3.331-10.141.924-14.36S49,29.947,49,29.947Z"/>
  <path class="cls-2" d="M0,36.4s0.721,10.51,3.838,13.585,7.867,3.374,10.61.668,2.439-7.392-.677-10.467S0,36.4,0,36.4Z"/>
</svg>
