<svg xmlns="http://www.w3.org/2000/svg" width="70" height="70" viewBox="0 0 70 70">
  <defs>
    <style>
      .cls-1, .cls-2 {
        fill: #030303;
        stroke: #fff;
        stroke-width: 3px;
      }

      .cls-1 {
        fill-rule: evenodd;
      }
    </style>
  </defs>
  <path class="cls-1" d="M34.921,3.381a1.4,1.4,0,1,1-1.4,1.4A1.4,1.4,0,0,1,34.921,3.381Zm0,60.2a1.4,1.4,0,1,1-1.4,1.4A1.4,1.4,0,0,1,34.921,63.581ZM43.076,4.457a1.4,1.4,0,1,1-1.715.99A1.4,1.4,0,0,1,43.076,4.457ZM27.5,62.606a1.4,1.4,0,1,1-1.715.99A1.4,1.4,0,0,1,27.5,62.606Zm23.179-55a1.4,1.4,0,1,1-1.912.512A1.4,1.4,0,0,1,50.675,7.607Zm-30.1,52.135a1.4,1.4,0,1,1-1.912.512A1.4,1.4,0,0,1,20.575,59.742ZM57.2,12.616a1.4,1.4,0,1,1-1.98,0A1.4,1.4,0,0,1,57.2,12.616ZM14.631,55.184a1.4,1.4,0,1,1-1.98,0A1.4,1.4,0,0,1,14.631,55.184ZM62.2,19.143a1.4,1.4,0,1,1-1.913-.512A1.4,1.4,0,0,1,62.2,19.143ZM10.07,49.243a1.4,1.4,0,1,1-1.912-.512A1.4,1.4,0,0,1,10.07,49.243Zm55.28-22.5a1.4,1.4,0,1,1-1.715-.99A1.4,1.4,0,0,1,65.35,26.744ZM7.2,42.325a1.4,1.4,0,1,1-1.715-.99A1.4,1.4,0,0,1,7.2,42.325ZM66.422,34.9a1.4,1.4,0,1,1-1.4-1.4A1.4,1.4,0,0,1,66.422,34.9Zm-60.2,0a1.4,1.4,0,1,1-1.4-1.4A1.4,1.4,0,0,1,6.222,34.9Zm59.124,8.155a1.4,1.4,0,1,1-.99-1.715A1.4,1.4,0,0,1,65.346,43.054ZM7.2,27.473a1.4,1.4,0,1,1-.99-1.715A1.4,1.4,0,0,1,7.2,27.473Zm55,23.18a1.4,1.4,0,1,1-.512-1.913A1.4,1.4,0,0,1,62.2,50.653Zm-52.135-30.1a1.4,1.4,0,1,1-.512-1.913A1.4,1.4,0,0,1,10.061,20.553ZM57.187,57.177a1.4,1.4,0,1,1,0-1.98A1.4,1.4,0,0,1,57.187,57.177ZM14.619,14.609a1.4,1.4,0,1,1,0-1.98A1.4,1.4,0,0,1,14.619,14.609ZM50.66,62.183a1.4,1.4,0,1,1,.512-1.912A1.4,1.4,0,0,1,50.66,62.183ZM20.56,10.048a1.4,1.4,0,1,1,.512-1.912A1.4,1.4,0,0,1,20.56,10.048Zm22.5,55.281a1.4,1.4,0,1,1,.99-1.715A1.4,1.4,0,0,1,43.059,65.328ZM27.478,7.18a1.4,1.4,0,1,1,.99-1.715A1.4,1.4,0,0,1,27.478,7.18Z"/>
  <path class="cls-1" d="M34,0h2V9H34V0Zm0,61h2v9H34V61ZM0,36V34H9v2H0Zm61,0V34h9v2H61Z"/>
  <path class="cls-1" d="M17,36V34H36v2H17Zm19,0H34V11h2V36Z"/>
  <circle class="cls-2" cx="35.031" cy="35" r="3.5"/>
</svg>
