<svg xmlns="http://www.w3.org/2000/svg" xmlns:xlink="http://www.w3.org/1999/xlink" width="60" height="64" viewBox="0 0 60 64">
  <defs>
    <style>
      .cls-1 {
        filter: url(#filter);
      }

      .cls-2 {
        fill: none;
        stroke: #000;
        stroke-width: 3px;
        fill-rule: evenodd;
      }
    </style>
    <filter id="filter" filterUnits="userSpaceOnUse">
      <feFlood result="flood" flood-color="#fff"/>
      <feComposite result="composite" operator="in" in2="SourceGraphic"/>
      <feBlend result="blend" in2="SourceGraphic"/>
    </filter>
  </defs>
  <g class="cls-1">
    <path id="Rounded_Rectangle_1" data-name="Rounded Rectangle 1" class="cls-2" d="M40.123,6.932l17.812,17.7a6.924,6.924,0,0,1,0,9.835L30.722,61.515a7.028,7.028,0,0,1-9.9,0L3.015,43.812a6.924,6.924,0,0,1,0-9.835L30.228,6.932A7.028,7.028,0,0,1,40.123,6.932ZM31.1,40.178l0.156,16.864A6.894,6.894,0,0,1,24.251,64L7.282,63.849A7.207,7.207,0,0,1,.148,56.758L-0.008,39.894A6.894,6.894,0,0,1,7,32.932l16.968,0.155A7.207,7.207,0,0,1,31.1,40.178ZM16.827,46.766a4.847,4.847,0,0,1,0,6.884,4.92,4.92,0,0,1-6.927,0,4.847,4.847,0,0,1,0-6.884A4.919,4.919,0,0,1,16.827,46.766Z"/>
    <path class="cls-2" d="M15.219,56.329s-11.2-10.084-11.2-31.294S8.921,0,11.02,0s5.948,4.173,6.3,21.558"/>
  </g>
</svg>
