<svg width="48" height="41" xmlns="http://www.w3.org/2000/svg">
 <defs>
  <clipPath id="clip0">
   <rect id="svg_1" fill="white" height="40.7089" width="48"/>
  </clipPath>
 </defs>
 <g>
  <title>background</title>
  <rect fill="none" id="canvas_background" height="602" width="802" y="-1" x="-1"/>
 </g>
 <g>
  <title>Layer 1</title>
  <g id="svg_2" clip-path="url(#clip0)">
   <path id="svg_3" fill="#ffffff" d="m42.5886,8.52554l-5.0696,0l0,-5.06962c0,-0.89637 -0.3561,-1.75602 -0.9899,-2.38984c-0.6338,-0.63383 -1.4935,-0.98991 -2.3898,-0.98991l-20.2785,0c-0.8964,0 -1.756,0.35608 -2.3899,0.98991c-0.6338,0.63382 -0.9899,1.49347 -0.9899,2.38984l0,5.06962l-5.06958,0c-1.34455,0 -2.63403,0.53412 -3.58477,1.48486c-0.95073,0.9507 -1.48485,2.2402 -1.48485,3.5848l0,23.6582c0,0.8963 0.35608,1.756 0.9899,2.3898c0.63383,0.6339 1.49348,0.9899 2.38984,0.9899l40.55696,0c0.8964,0 1.756,-0.356 2.3898,-0.9899c0.6339,-0.6338 0.9899,-1.4935 0.9899,-2.3898l0,-23.6582c0,-1.3446 -0.5341,-2.6341 -1.4848,-3.5848c-0.9507,-0.95074 -2.2402,-1.48486 -3.5848,-1.48486zm-28.7278,-5.06962l20.2785,0l0,5.06962l-20.2785,0l0,-5.06962zm30.4177,33.79748l-40.55696,0l0,-15.2089l13.51896,0l0,8.4494l13.519,0l0,-8.4494l13.519,0l0,15.2089zm-23.6582,-15.2089l6.7595,0l0,5.0696l-6.7595,0l0,-5.0696zm-16.89876,-3.3797l0,-5.0696c0,-0.4482 0.17804,-0.878 0.49496,-1.195c0.31691,-0.3169 0.74673,-0.4949 1.19492,-0.4949l37.17718,0c0.4482,0 0.878,0.178 1.195,0.4949c0.3169,0.317 0.4949,0.7468 0.4949,1.195l0,5.0696l-40.55696,0z"/>
  </g>
 </g>
</svg>