<svg width="47.99999999999999" height="47.99999999999999" xmlns="http://www.w3.org/2000/svg">
 <defs>
  <clipPath id="clip0">
   <rect id="svg_1" fill="white" height="47.4146" width="48"/>
  </clipPath>
 </defs>
 <g>
  <title>background</title>
  <rect fill="none" id="canvas_background" height="602" width="802" y="-1" x="-1"/>
 </g>
 <g>
  <title>Layer 1</title>
  <g id="svg_2" clip-path="url(#clip0)">
   <path id="svg_3" fill="#ffffff" d="m43.6503,13.75l-39.29999,0c-0.018,0 -0.03,0.0119 -0.03,0.0296l0,5.4053c0,3.5442 2.94,6.4188 6.55799,6.4188c2.442,0 4.572,-1.3039 5.706,-3.242c0.174,-0.3023 0.504,-0.4919 0.858,-0.4919c0.354,0 0.678,0.1896 0.858,0.4919c1.128,1.9381 3.258,3.242 5.7,3.242c2.448,0 4.584,-1.3099 5.706,-3.2539c0.174,-0.2963 0.492,-0.48 0.834,-0.48l0.036,0c0.348,0 0.66,0.1837 0.834,0.48c1.128,1.944 3.264,3.2539 5.712,3.2539c3.618,0 6.558,-2.8746 6.558,-6.4188l0,-5.4053c0,-0.0177 -0.012,-0.0296 -0.03,-0.0296z" opacity="0.15"/>
   <path id="svg_4" fill="#ffffff" d="m46.2,9.48885l0,-7.59226c0,-1.04905 -0.858,-1.89659 -1.92,-1.89659l-40.55997,0c-1.06199,0 -1.91999,0.84754 -1.91999,1.89659l0,7.59226c-1.002,0.05927 -1.8,0.88315 -1.8,1.89065l0,7.8056c-0.00385,1.4346 0.29021,2.8547 0.864,4.1725c0.258,0.6046 0.576,1.1735 0.936,1.7129l0,20.4475c0,1.0432 0.858,1.8966 1.91999,1.8966l40.55997,0c1.062,0 1.92,-0.8475 1.92,-1.8966l0,-20.4475c0.3657,-0.5407 0.679,-1.1142 0.936,-1.7129c0.57,-1.3216 0.864,-2.7263 0.864,-4.1725l0,-7.8056c0,-1.0075 -0.798,-1.83138 -1.8,-1.89065zm-40.07997,-5.22153l35.75997,0l0,5.21561l-35.75997,0l0,-5.21561zm21.71997,38.88588l-7.68,0l0,-6.1698l7.68,0l0,6.1698zm14.064,0l-10.224,0l0,-8.0664c0,-1.049 -0.858,-1.8966 -1.92,-1.8966l-11.52,0c-1.062,0 -1.92,0.8476 -1.92,1.8966l0,8.0664l-10.19997,0l0,-14.3547c0.174,0.0829 0.354,0.1659 0.54,0.237c1.338,0.5572 2.76,0.8357 4.22397,0.8357c1.464,0 2.88,-0.2785 4.224,-0.8357c0.828,-0.3437 1.608,-0.7823 2.322,-1.3098c0.012,-0.0059 0.024,-0.0059 0.036,0c0.7162,0.5297 1.4962,0.9697 2.322,1.3098c1.338,0.5572 2.76,0.8357 4.224,0.8357c1.464,0 2.88,-0.2785 4.224,-0.8357c0.828,-0.3437 1.608,-0.7823 2.322,-1.3098c0.012,-0.0059 0.024,-0.0059 0.036,0c0.7162,0.5297 1.4962,0.9697 2.322,1.3098c1.338,0.5572 2.76,0.8357 4.224,0.8357c1.464,0 2.88,-0.2785 4.224,-0.8357c0.18,-0.077 0.36,-0.1541 0.54,-0.237l0,14.3547zm1.776,-23.9681c0,3.5443 -2.94,6.4188 -6.558,6.4188c-2.448,0 -4.584,-1.3098 -5.712,-3.2538c-0.174,-0.2964 -0.486,-0.4801 -0.834,-0.4801l-0.036,0c-0.342,0 -0.66,0.1837 -0.834,0.4801c-0.5756,0.9916 -1.4068,1.8151 -2.409,2.3866c-1.0022,0.5715 -2.1398,0.8707 -3.297,0.8672c-2.442,0 -4.572,-1.3039 -5.7,-3.242c-0.18,-0.3022 -0.504,-0.4919 -0.858,-0.4919c-0.354,0 -0.684,0.1897 -0.858,0.4919c-0.579,0.9879 -1.4112,1.8076 -2.4129,2.3768c-1.0017,0.5691 -2.1375,0.8675 -3.2931,0.8652c-3.61797,0 -6.55797,-2.8745 -6.55797,-6.4188l0,-5.4052c0,-0.0178 0.012,-0.0297 0.03,-0.0297l39.29997,0c0.018,0 0.03,0.0119 0.03,0.0297l0,5.4052z"/>
  </g>
 </g>
</svg>