<svg width="48" height="38" xmlns="http://www.w3.org/2000/svg">
 <defs>
  <clipPath id="clip0">
   <rect id="svg_1" fill="white" height="37.92" width="48"/>
  </clipPath>
 </defs>
 <g>
  <title>background</title>
  <rect fill="none" id="canvas_background" height="602" width="802" y="-1" x="-1"/>
 </g>
 <g>
  <title>Layer 1</title>
  <g id="svg_2" clip-path="url(#clip0)">
   <path id="svg_3" fill="#0d5c63" d="m29.27059,8.75301l11.9979,0l0,3.44528l-11.9979,0l0,-3.44528z"/>
   <path id="svg_4" fill="#0d5c63" d="m29.1416,17.2373l11.9979,0l0,3.4453l-11.9979,0l0,-3.4453z"/>
   <path id="svg_5" fill="#0d5c63" d="m29.1416,25.8506l11.9979,0l0,3.4453l-11.9979,0l0,-3.4453z"/>
   <path id="svg_6" fill="#0d5c63" d="m44.04696,0.01123l-41.13553,0c-0.90888,0.00091 -1.78026,0.36419 -2.42294,1.01012c-0.64267,0.64592 -1.00412,1.52172 -1.00502,2.4352l0,31.00785c0.0009,0.9135 0.36235,1.7893 1.00502,2.4352c0.64268,0.6459 1.51406,1.0092 2.42294,1.0101l41.13553,0c0.9087,-0.0013 1.7798,-0.3648 2.4224,-1.0106c0.6426,-0.6458 1.0042,-1.5214 1.0055,-2.4347l0,-31.00785c-0.0009,-0.91348 -0.3623,-1.78928 -1.005,-2.4352c-0.6426,-0.64593 -1.514,-1.00921 -2.4229,-1.01012zm-41.13553,3.44532l18.85373,0l0,31.00785l-18.85373,0l0,-31.00785zm22.28173,31.00785l0,-31.00785l18.8538,0l0.0034,31.00785l-18.8572,0z"/>
  </g>
 </g>
</svg>