<svg id="Page_1" data-name="Page 1" xmlns="http://www.w3.org/2000/svg" width="28" height="28" viewBox="0 0 28 28">
  <defs>
    <style>
      .cls-1 {
        fill: #007397;
        fill-rule: evenodd;
      }
    </style>
  </defs>
  <path id="Fill_1" data-name="Fill 1" class="cls-1" d="M13.848,1.505A12.577,12.577,0,0,0,1.217,14a12.632,12.632,0,0,0,25.262,0A12.578,12.578,0,0,0,13.848,1.505m0,26.193A13.79,13.79,0,0,1,0,14a13.849,13.849,0,0,1,27.7,0A13.79,13.79,0,0,1,13.848,27.7"/>
  <path id="Fill_3" data-name="Fill 3" class="cls-1" d="M13.848,1.505C9.961,1.505,6.8,7.11,6.8,14s3.163,12.495,7.05,12.495S20.9,20.89,20.9,14,17.734,1.505,13.848,1.505m0,26.193c-4.559,0-8.267-6.145-8.267-13.7S9.289,0.3,13.848.3,22.113,6.446,22.113,14s-3.707,13.7-8.265,13.7"/>
  <path id="Fill_5" data-name="Fill 5" class="cls-1" d="M14.457,1.519V26.481A12.572,12.572,0,0,0,26.479,14,12.572,12.572,0,0,0,14.457,1.519M13.848,27.7a0.6,0.6,0,0,1-.609-0.6V0.9A0.606,0.606,0,0,1,13.848.3,13.79,13.79,0,0,1,27.7,14,13.79,13.79,0,0,1,13.848,27.7"/>
  <path id="Fill_8" data-name="Fill 8" class="cls-1" d="M1.9,18.014H25.8a12.13,12.13,0,0,0,0-8.029H1.9a12.183,12.183,0,0,0,0,8.029m24.327,1.2H1.468a0.608,0.608,0,0,1-.57-0.39,13.4,13.4,0,0,1,0-9.658,0.608,0.608,0,0,1,.57-0.389H26.224a0.61,0.61,0,0,1,.57.389,13.364,13.364,0,0,1,0,9.66,0.61,0.61,0,0,1-.57.389"/>
</svg>
