<svg xmlns="http://www.w3.org/2000/svg" width="172" height="20" viewBox="0 0 172 20">
  <defs>
    <style>
      .cls-1 {
        fill: #007397;
        fill-rule: evenodd;
      }
    </style>
  </defs>
  <path id="BUSINESS" class="cls-1" d="M9.766,0a11.934,11.934,0,0,1,4.05.627A5.962,5.962,0,0,1,16.489,2.4a4.078,4.078,0,0,1,.934,2.66,4.291,4.291,0,0,1-.88,2.646,4.558,4.558,0,0,1-2.371,1.629,4.731,4.731,0,0,1,2.781,1.783A5.254,5.254,0,0,1,18,14.387a4.789,4.789,0,0,1-.967,2.967,6.062,6.062,0,0,1-2.713,1.964A11.183,11.183,0,0,1,10.236,20H0V0H9.766ZM7,8H9.714a1.459,1.459,0,0,0,.935-0.279A0.9,0.9,0,0,0,11,6.98a0.853,0.853,0,0,0-.351-0.711A1.5,1.5,0,0,0,9.714,6H7V8ZM5,15H8.667a2.939,2.939,0,0,0,1.7-.438A1.329,1.329,0,0,0,11,13.425a1.173,1.173,0,0,0-.643-1.034A3.226,3.226,0,0,0,8.667,12H5v3Zm37-3.626a8.747,8.747,0,0,1-1.158,4.54,7.747,7.747,0,0,1-3.289,3.022A11.02,11.02,0,0,1,32.569,20a11.285,11.285,0,0,1-5.026-1.064,7.875,7.875,0,0,1-3.357-3.022A8.588,8.588,0,0,1,23,11.374V0h6.549V11.374a3.136,3.136,0,0,0,.889,2.3,2.921,2.921,0,0,0,2.158.9,2.667,2.667,0,0,0,2.048-.872,3.294,3.294,0,0,0,.807-2.328V0H42V11.374ZM57.567,0a16.821,16.821,0,0,1,4.52.626A14.35,14.35,0,0,1,66,2.313l-2.321,4.9a24.908,24.908,0,0,0-3.555-1.592,9.706,9.706,0,0,0-3.11-.694q-1.187,0-1.187.816a1.068,1.068,0,0,0,.749.959,15.25,15.25,0,0,0,2.368.769,25.977,25.977,0,0,1,3.474,1.143,6.367,6.367,0,0,1,2.4,1.823,5,5,0,0,1,1.032,3.306,5.536,5.536,0,0,1-1.086,3.5,6.41,6.41,0,0,1-2.942,2.082A11.9,11.9,0,0,1,57.7,20a17.269,17.269,0,0,1-5.175-.816A14.276,14.276,0,0,1,48,16.884l2.388-4.844a14.031,14.031,0,0,0,3.677,2.129,10.155,10.155,0,0,0,3.69.9q1.552,0,1.552-1.007a1.084,1.084,0,0,0-.762-0.986,15.583,15.583,0,0,0-2.449-.769,25.412,25.412,0,0,1-3.427-1.061A6.1,6.1,0,0,1,50.287,9.51a4.712,4.712,0,0,1-1.005-3.156A5.645,5.645,0,0,1,50.3,3,6.51,6.51,0,0,1,53.2.782,11.3,11.3,0,0,1,57.567,0ZM71,0h7V20H71V0ZM97.593,20L89.9,9.791V20H84V0h5.421l7.722,10.279V0H103V20H97.593Zm18.97-14.972V7.479h9.251v5.014h-9.251v2.493H127V20H110V0h16.752V5.028H116.563Zm24-5.028a16.819,16.819,0,0,1,4.52.626A14.349,14.349,0,0,1,149,2.313l-2.321,4.9a24.877,24.877,0,0,0-3.555-1.592,9.709,9.709,0,0,0-3.111-.694q-1.186,0-1.187.816a1.069,1.069,0,0,0,.749.959,15.226,15.226,0,0,0,2.368.769,26.04,26.04,0,0,1,3.475,1.143,6.37,6.37,0,0,1,2.4,1.823,5,5,0,0,1,1.032,3.306,5.537,5.537,0,0,1-1.086,3.5,6.407,6.407,0,0,1-2.941,2.082A11.9,11.9,0,0,1,140.7,20a17.269,17.269,0,0,1-5.175-.816,14.269,14.269,0,0,1-4.527-2.3l2.388-4.844a14.034,14.034,0,0,0,3.677,2.129,10.156,10.156,0,0,0,3.691.9q1.551,0,1.551-1.007a1.084,1.084,0,0,0-.762-0.986,15.584,15.584,0,0,0-2.449-.769,25.39,25.39,0,0,1-3.427-1.061,6.1,6.1,0,0,1-2.382-1.742,4.713,4.713,0,0,1-1-3.156A5.639,5.639,0,0,1,133.3,3,6.509,6.509,0,0,1,136.2.782,11.3,11.3,0,0,1,140.567,0Zm23,0a16.819,16.819,0,0,1,4.52.626A14.362,14.362,0,0,1,172,2.313l-2.321,4.9a24.927,24.927,0,0,0-3.555-1.592,9.709,9.709,0,0,0-3.111-.694q-1.186,0-1.187.816a1.069,1.069,0,0,0,.749.959,15.263,15.263,0,0,0,2.368.769,25.972,25.972,0,0,1,3.474,1.143,6.366,6.366,0,0,1,2.4,1.823,5,5,0,0,1,1.033,3.306,5.538,5.538,0,0,1-1.087,3.5,6.407,6.407,0,0,1-2.941,2.082A11.9,11.9,0,0,1,163.7,20a17.264,17.264,0,0,1-5.175-.816,14.269,14.269,0,0,1-4.527-2.3l2.388-4.844a14.034,14.034,0,0,0,3.677,2.129,10.156,10.156,0,0,0,3.69.9q1.553,0,1.552-1.007a1.084,1.084,0,0,0-.762-0.986,15.584,15.584,0,0,0-2.449-.769,25.39,25.39,0,0,1-3.427-1.061,6.1,6.1,0,0,1-2.382-1.742,4.713,4.713,0,0,1-1-3.156A5.639,5.639,0,0,1,156.3,3,6.509,6.509,0,0,1,159.2.782,11.3,11.3,0,0,1,163.567,0Z"/>
</svg>
