<svg width="72" height="72" xmlns="http://www.w3.org/2000/svg">

 <g>
  <title>background</title>
  <rect fill="none" id="canvas_background" height="602" width="802" y="-1" x="-1"/>
 </g>
 <g>
  <title>Layer 1</title>
  <path id="svg_1" fill="#ffffff" d="m55.929,38.9947c-0.3515,-0.3521 -0.769,-0.6315 -1.2286,-0.8221c-0.4596,-0.1906 -0.9522,-0.2887 -1.4498,-0.2887c-0.4975,0 -0.9902,0.0981 -1.4498,0.2887c-0.4595,0.1906 -0.877,0.47 -1.2286,0.8221l-6.0387,6.0387c-2.7996,-0.8335 -8.0238,-2.7277 -11.3348,-6.0387c-3.3111,-3.3111 -5.2053,-8.5353 -6.0387,-11.3349l6.0387,-6.0387c0.3521,-0.3515 0.6314,-0.769 0.822,-1.2286c0.1906,-0.4596 0.2887,-0.9522 0.2887,-1.4498c0,-0.4975 -0.0981,-0.9902 -0.2887,-1.4498c-0.1906,-0.4596 -0.4699,-0.877 -0.822,-1.2286l-15.1536,-15.15354c-0.3515,-0.35211 -0.769,-0.63146 -1.2286,-0.82206c-0.4596,-0.1906 -0.9523,-0.2887 -1.4498,-0.2887c-0.4975,0 -0.9902,0.0981 -1.4498,0.2887c-0.4596,0.1906 -0.8771,0.46995 -1.2286,0.82206l-10.27412,10.27414c-1.43959,1.4396 -2.25031,3.4171 -2.22,5.4363c0.08713,5.3947 1.51536,24.1321 16.28252,38.8992c14.7672,14.7672 33.5046,16.1916 38.903,16.2826l0.1061,0c2.0003,0 3.8907,-0.788 5.3227,-2.22l10.2741,-10.2742c0.3521,-0.3515 0.6315,-0.769 0.8221,-1.2286c0.1906,-0.4595 0.2887,-0.9522 0.2887,-1.4498c0,-0.4975 -0.0981,-0.9902 -0.2887,-1.4497c-0.1906,-0.4596 -0.47,-0.8771 -0.8221,-1.2286l-15.1536,-15.1574zm-0.4811,25.4277c-4.7279,-0.0796 -20.9044,-1.3487 -33.6144,-14.0625c-12.75175,-12.7518 -13.98676,-28.985 -14.06253,-33.6182l7.59573,-7.59576l9.7968,9.79676l-4.8984,4.8984c-0.4453,0.445 -0.7727,0.9939 -0.9526,1.5971c-0.1799,0.6032 -0.2067,1.2418 -0.0779,1.8579c0.091,0.4357 2.3148,10.7666 8.6035,17.0554c6.2887,6.2887 16.6197,8.5125 17.0553,8.6034c0.6158,0.1325 1.255,0.1078 1.8588,-0.0716c0.6038,-0.1794 1.1527,-0.5078 1.5963,-0.955l4.9021,-4.8984l9.7968,9.7968l-7.5995,7.5957z"/>
 </g>
</svg>