<svg width="57" height="71" xmlns="http://www.w3.org/2000/svg">

 <g>
  <title>background</title>
  <rect fill="none" id="canvas_background" height="602" width="802" y="-1" x="-1"/>
 </g>
 <g>
  <title>Layer 1</title>
  <path id="svg_1" fill="#0d5c63" d="m28.5,42c7.9967,0 14.5,-6.279 14.5,-14c0,-7.721 -6.5033,-14 -14.5,-14c-7.9968,0 -14.5,6.279 -14.5,14c0,7.721 6.5032,14 14.5,14zm0,-21c3.9984,0 7.25,3.1395 7.25,7c0,3.8605 -3.2516,7 -7.25,7c-3.9984,0 -7.25,-3.1395 -7.25,-7c0,-3.8605 3.2516,-7 7.25,-7z"/>
  <path id="svg_2" fill="#0d5c63" d="m26.4338,70.3403c0.6029,0.429 1.3253,0.6597 2.0662,0.6597c0.7409,0 1.4633,-0.2307 2.0662,-0.6597c1.083,-0.7633 26.5368,-19.0779 26.4335,-41.9401c0,-15.6591 -12.7857,-28.4002 -28.4997,-28.4002c-15.714,0 -28.49969,12.7411 -28.49969,28.3825c-0.10331,22.8799 25.35049,41.1945 26.43349,41.9578zm2.0662,-63.24024c11.7882,0 21.3748,9.55314 21.3748,21.31794c0.0748,15.755 -15.6321,29.9019 -21.3748,34.5418c-5.7391,-4.6435 -21.44958,-18.7939 -21.37476,-34.5596c0,-11.747 9.58656,-21.30014 21.37476,-21.30014z"/>
 </g>
</svg>