<svg width="70" height="71" xmlns="http://www.w3.org/2000/svg">

 <g>
  <title>background</title>
  <rect fill="none" id="canvas_background" height="602" width="802" y="-1" x="-1"/>
 </g>
 <g>
  <title>Layer 1</title>
  <path id="svg_1" fill="#ffffff" d="m68.3484,1.16199c-0.3892,-0.40296 -0.881,-0.68196 -1.4176,-0.80418c-0.5365,-0.12223 -1.0954,-0.0826 -1.611,0.11421l-63.4583,23.99878c-0.54728,0.2159 -1.01845,0.5998 -1.35094,1.1008c-0.33249,0.501 -0.51056,1.0953 -0.51056,1.704c0,0.6088 0.17807,1.2031 0.51056,1.7041c0.33249,0.501 0.80366,0.8849 1.35094,1.1008l27.6909,11.5194l11.0763,28.7985c0.2081,0.5442 0.5648,1.0131 1.0262,1.3489c0.4613,0.3359 1.007,0.5239 1.5699,0.541c0.5829,-0.0124 1.1485,-0.2083 1.6222,-0.5617c0.4737,-0.3534 0.8334,-0.8479 1.0315,-1.4182l23.0757,-65.99657c0.1965,-0.53075 0.2439,-1.10866 0.1367,-1.66635c-0.1073,-0.55769 -0.3648,-1.07218 -0.7425,-1.48349zm-25.1236,59.72691l-8.0477,-20.9989l13.8166,-14.3693l-4.0671,-4.2297l-13.932,14.4892l-20.0759,-8.4896l50.5647,-18.98898l-18.2586,52.58728z"/>
 </g>
</svg>